# xmcd
#
# Track frame offsets:
#	160
#	14013
#	31970
#	48570
#	66969
#	86332
#	109166
#	128362
#	146754
#	162819
#	179217
#	196775
#	214182
#	235538
#	250709
#	268679
#	288803
#
# Disc length: 4065 seconds
#
# Revision: 1
# Processed by: cddbd v1.4PL0 Copyright (c) Steve Scherf et al.
# Submitted via: audiograbber 1.80
#
DISCID=ee0fdf11
DTITLE=Формула 2002 - см
DYEAR=1900
DGENRE=
TTITLE0=Премьер-министр - Два бриллианта
TTITLE1=Дайкири - Осторожно
TTITLE2=Акула - Я убегаю
TTITLE3=Света - Другая
TTITLE4=Ольга Орлова - Разлука
TTITLE5=Таня Буланова - Ты не люби его
TTITLE6=Андрей Губин - Не бесконечна зима
TTITLE7=Гости из будущего - Люби меня по-французски
TTITLE8=Татьяна Овсиенко - Пойду по льду
TTITLE9=Лена Белоусова - Мне холодно с тобой
TTITLE10=Party - Сердце пополам
TTITLE11=Лика Star - Без тебя
TTITLE12=Демо - Последняя песня
TTITLE13=Игорь Николаев - Пять причин
TTITLE14=Диана Гурцкая - По зову сердца
TTITLE15=Витас - Блаженный гуру
TTITLE16=Monokini - Унеси меня
EXTD=
EXTT0=
EXTT1=
EXTT2=
EXTT3=
EXTT4=
EXTT5=
EXTT6=
EXTT7=
EXTT8=
EXTT9=
EXTT10=
EXTT11=
EXTT12=
EXTT13=
EXTT14=
EXTT15=
EXTT16=
PLAYORDER=
